<svg width="226" height="84" viewBox="0 0 226 84" fill="none" xmlns="http://www.w3.org/2000/svg">
<path d="M9.79739 56.8574C9.79739 56.8574 10.7556 55.994 10.6253 55.05C10.6253 55.05 7.51442 44.782 2.71459 42.905L1.02722 44.0615L9.79739 56.8574Z" stroke="#F8F9FD" stroke-width="0.318541" stroke-miterlimit="10"/>
<path d="M13.7488 62.6226C13.7488 62.6226 16.6093 60.7654 17.5335 59.0986C17.5335 59.0986 15.0365 43.2432 8.79616 38.7368L2.71459 42.905C2.71459 42.905 8.37785 45.7402 10.6253 55.05C10.6253 55.05 10.5727 56.481 9.79739 56.8574L13.7488 62.6226Z" stroke="#F8F9FD" stroke-width="0.318541" stroke-miterlimit="10"/>
<path d="M14.948 34.5203C14.948 34.5203 25.6347 50.1878 25.0895 62.9615C25.0895 62.9615 19.292 68.0718 17.7966 68.5284L13.7488 62.6226C13.7488 62.6226 17.3676 59.9873 17.5335 59.0986C17.5335 59.0986 14.8508 42.5954 8.79616 38.7368L14.948 34.5203Z" stroke="#F8F9FD" stroke-width="0.318541" stroke-miterlimit="10"/>
<path d="M47.008 12.5466C47.008 12.5466 47.3705 30.64 63.1738 46.159C63.1738 46.159 85.4982 44.8082 98.5564 30.6915C98.5564 30.6915 95.4085 6.49879 82.1055 -7.63375C82.1055 -7.63375 77.923 -8.38383 74.6387 -6.39115L47.008 12.5466Z" stroke="#F8F9FD" stroke-width="0.318541" stroke-miterlimit="10"/>
<path d="M53.5206 12.4748C53.5206 12.4748 53.7694 22.6377 65.5556 38.3265C65.5556 38.3265 72.7759 39.0612 90.5937 27.3658C90.5937 27.3658 89.3416 12.7238 79.7435 1.7353C79.7435 1.7353 65.6742 1.56147 53.5206 12.4748Z" stroke="#F8F9FD" stroke-width="0.318541" stroke-miterlimit="10"/>
<path d="M62.297 14.7263C62.297 14.7263 62.9882 22.5193 68.5298 30.6047C68.5298 30.6047 77.9501 27.7648 82.6307 24.0401C82.6307 24.0401 79.7513 11.5468 76.7692 9.45729C76.7692 9.45729 69.1065 11.0925 62.297 14.7263Z" stroke="#F8F9FD" stroke-width="0.318541" stroke-miterlimit="10"/>
<path d="M95.6613 -1.42457C95.6613 -1.42457 99.5203 -13.8863 114.703 -9.82581C114.703 -9.82581 115.888 -9.60462 115.758 -10.5486C115.758 -10.5486 101.72 -17.4609 94.5869 -2.23824C94.5869 -2.23824 94.3657 -1.05329 95.6613 -1.42457Z" stroke="#F8F9FD" stroke-width="0.318541" stroke-miterlimit="10"/>
<path d="M105.212 -3.32048C105.212 -3.32048 95.3888 4.96229 108.222 10.1169C108.222 10.1169 117.46 11.5349 115.434 1.04016C115.434 1.04016 112.243 -8.13925 105.212 -3.32048Z" stroke="#F8F9FD" stroke-width="0.318541" stroke-miterlimit="10"/>
<path d="M102.858 15.8601C102.858 15.8601 116.042 20.7737 122.734 7.92097C122.734 7.92097 124.491 6.71628 124.049 9.08617C124.049 9.08617 116.303 22.6617 102.878 17.3966C102.878 17.3966 101.211 16.4723 102.858 15.8601Z" stroke="#F8F9FD" stroke-width="0.318541" stroke-miterlimit="10"/>
<path d="M104.031 24.3561C104.031 24.3561 121.173 24.4905 126.96 14.8411C126.96 14.8411 128.958 13.9879 128.275 16.0063C128.275 16.0063 121.434 26.3785 104.051 25.8926C104.051 25.8926 102.625 25.3199 104.031 24.3561Z" stroke="#F8F9FD" stroke-width="0.318541" stroke-miterlimit="10"/>
<path d="M104.13 32.0387C104.13 32.0387 119.052 34.2111 132.592 20.7975C132.592 20.7975 133.777 21.0187 133.315 21.8521C133.315 21.8521 119.313 36.0991 104.501 33.3342C104.501 33.3342 103.668 32.8721 104.13 32.0387Z" stroke="#F8F9FD" stroke-width="0.318541" stroke-miterlimit="10"/>
<path d="M97.8415 39.4483C97.8415 39.4483 126.059 45.9419 141.57 20.3273C141.57 20.3273 142.273 19.8454 142.404 20.7895C142.404 20.7895 128.559 47.3283 97.9719 40.3923C97.9719 40.3923 97.1384 39.9302 97.8415 39.4483Z" stroke="#F8F9FD" stroke-width="0.318541" stroke-miterlimit="10"/>
<path d="M226.689 20.8885C226.689 20.8885 230.038 42.3598 244.325 59.4349C244.325 59.4349 264.169 58.2342 283.353 42.5021C283.353 42.5021 282.504 22.4172 264.995 2.90105C264.995 2.90105 242.67 4.25183 226.689 20.8885Z" stroke="#F8F9FD" stroke-width="0.318541" stroke-miterlimit="10"/>
<path d="M160.11 55.6699C160.11 55.6699 165.458 76.2881 172.999 83.5202C172.999 83.5202 189.86 80.2301 199.443 71.5958C199.443 71.5958 194.817 52.0322 187.036 44.4485C187.036 44.4485 171.209 45.4794 160.11 55.6699Z" stroke="#F8F9FD" stroke-width="0.318541" stroke-miterlimit="10"/>
<path d="M169.017 58.8655C169.017 58.8655 171.747 68.8783 175.361 74.1513C175.361 74.1513 183.154 73.4601 190.887 68.1595C190.887 68.1595 187.155 53.6675 184.655 52.2811C184.655 52.2811 174.993 54.7695 169.017 58.8655Z" stroke="#F8F9FD" stroke-width="0.318541" stroke-miterlimit="10"/>
<path d="M152.389 52.696C152.389 52.696 154.553 73.9461 168.95 90.4288C168.95 90.4288 189.908 93.1148 207.516 74.3294C207.516 74.3294 203.444 51.8035 189.418 36.6164C189.418 36.6164 164.041 39.5431 152.389 52.696Z" stroke="#F8F9FD" stroke-width="0.318541" stroke-miterlimit="10"/>
<path d="M131.699 107.693C131.699 107.693 131.573 88.6632 115.47 68.1832C115.47 68.1832 91.7192 68.9613 77.3852 84.9857C77.3852 84.9857 81.5167 112.121 94.7802 123.181C94.7802 123.181 110.647 125.223 131.699 107.693Z" stroke="#F8F9FD" stroke-width="0.318541" stroke-miterlimit="10"/>
<path d="M85.9208 86.8856C85.9208 86.8856 86.3394 101.065 97.2725 114.756C97.2725 114.756 112.748 113.966 123.495 104.016C123.495 104.016 120.928 88.2088 112.626 76.8491C112.626 76.8491 101.258 75.3402 85.9208 86.8856Z" stroke="#F8F9FD" stroke-width="0.318541" stroke-miterlimit="10"/>
<path d="M94.014 91.1554C94.014 91.1554 97.1146 102.464 100.357 106.441C100.357 106.441 106.503 106.362 115.292 100.339C115.292 100.339 112.673 89.7335 108.356 84.9423C108.356 84.9423 107.854 82.7028 94.014 91.1554Z" stroke="#F8F9FD" stroke-width="0.318541" stroke-miterlimit="10"/>
<path d="M151.172 -32.7545C151.172 -32.7545 163.792 -16.6036 164.412 -5.14513C164.412 -5.14513 152.258 5.76822 138.319 6.5384C138.319 6.5384 125.4 -14.5735 127.691 -20.277C127.691 -20.277 135.255 -29.5947 151.172 -32.7545Z" stroke="#F8F9FD" stroke-width="0.318541" stroke-miterlimit="10"/>
<path d="M155.573 -39.9037C155.573 -39.9037 175.882 -14.0401 172.486 -2.41182C172.486 -2.41182 160.391 13.111 135.697 14.0194C135.697 14.0194 117.093 -7.84694 119.487 -23.9543C119.487 -23.9543 136.282 -41.6653 155.573 -39.9037Z" stroke="#F8F9FD" stroke-width="0.318541" stroke-miterlimit="10"/>
<path d="M148.68 -24.3297C148.68 -24.3297 156.982 -12.9699 156.098 -8.23014C156.098 -8.23014 148.143 -1.74454 141.515 -2.36863C141.515 -2.36863 132.952 -15.6164 135.764 -17.5439C135.764 -17.5439 139.26 -21.4898 148.68 -24.3297Z" stroke="#F8F9FD" stroke-width="0.318541" stroke-miterlimit="10"/>
<path d="M179.097 0.600333C179.097 0.600333 194.039 2.50064 207.351 -11.1701C207.351 -11.1701 208.536 -10.9489 208.109 -10.1396C208.109 -10.1396 194.394 4.37561 179.503 1.87178C179.527 1.90693 178.659 1.4689 179.097 0.600333Z" stroke="#F8F9FD" stroke-width="0.318541" stroke-miterlimit="10"/>
<path d="M175.581 7.60806C175.581 7.60806 204.199 12.1224 217.877 -14.5089C217.877 -14.5089 218.556 -15.0259 218.721 -14.106C218.721 -14.106 206.732 13.3311 175.747 8.52798C175.806 8.53904 174.926 8.16024 175.581 7.60806Z" stroke="#F8F9FD" stroke-width="0.318541" stroke-miterlimit="10"/>
<path d="M213.77 40.3344C213.77 40.3344 203.224 47.5626 214.43 54.8659C214.43 54.8659 222.132 56.3036 223.57 48.6015C223.57 48.6015 223.913 38.5491 213.77 40.3344Z" stroke="#F8F9FD" stroke-width="0.318541" stroke-miterlimit="10"/>
<path d="M197.915 35.4438C197.915 35.4438 203.2 23.5548 220.01 25.4666C220.01 25.4666 220.954 25.3362 220.472 24.6332C220.472 24.6332 205.159 19.6287 196.84 34.6301C196.84 34.6301 196.619 35.8151 197.915 35.4438Z" stroke="#F8F9FD" stroke-width="0.318541" stroke-miterlimit="10"/>
<path d="M202.733 42.4744C202.733 42.4744 206.592 30.0126 221.775 34.0731C221.775 34.0731 222.96 34.2943 222.83 33.3503C222.83 33.3503 208.792 26.4381 201.659 41.6607C201.659 41.6607 201.438 42.8456 202.733 42.4744Z" stroke="#F8F9FD" stroke-width="0.318541" stroke-miterlimit="10"/>
<path d="M182.949 29.8907C182.949 29.8907 198.992 3.39455 227.066 10.6584C227.066 10.6584 228.01 10.528 227.663 9.26762C227.663 9.26762 201.035 -0.485378 181.898 29.1122C181.898 29.1122 181.653 30.262 182.949 29.8907Z" stroke="#F8F9FD" stroke-width="0.315483" stroke-miterlimit="10"/>
<path d="M190.965 28.1686C190.965 28.1686 204.659 11.1358 221.643 16.3907C221.643 16.3907 222.671 17.2877 221.362 17.5646C221.362 17.5646 207.067 12.6889 192.345 28.8247C192.369 28.8598 190.89 29.7181 190.965 28.1686Z" stroke="#F8F9FD" stroke-width="0.315483" stroke-miterlimit="10"/>
<path d="M213.362 69.2893C213.362 69.2893 230.504 69.4236 236.291 59.7742C236.291 59.7742 238.29 58.921 237.606 60.9394C237.606 60.9394 230.765 71.3116 213.382 70.8257C213.382 70.8257 211.956 70.253 213.362 69.2893Z" stroke="#F8F9FD" stroke-width="0.318541" stroke-miterlimit="10"/>
<path d="M214.405 76.8414C214.405 76.8414 229.327 79.0139 242.867 65.6003C242.867 65.6003 244.052 65.8215 243.59 66.6549C243.59 66.6549 229.588 80.9019 214.776 78.137C214.776 78.137 213.943 77.6748 214.405 76.8414Z" stroke="#F8F9FD" stroke-width="0.318541" stroke-miterlimit="10"/>
<path d="M208.074 83.6607C208.074 83.6607 236.291 90.1543 251.802 64.5397C251.802 64.5397 252.505 64.0578 252.636 65.0019C252.636 65.0019 238.791 91.5407 208.204 84.6048C208.204 84.6048 207.371 84.1426 208.074 83.6607Z" stroke="#F8F9FD" stroke-width="0.318541" stroke-miterlimit="10"/>
<path d="M210.943 60.4072C210.943 60.4072 224.127 65.3208 230.818 52.4681C230.818 52.4681 232.576 51.2634 232.134 53.6333C232.134 53.6333 224.388 67.2088 210.963 61.9437C210.963 61.9437 209.296 61.0194 210.943 60.4072Z" stroke="#F8F9FD" stroke-width="0.318541" stroke-miterlimit="10"/>
<path d="M139.903 72.7749C139.903 72.7749 129.357 80.003 140.563 87.3063C140.563 87.3063 148.265 88.7441 149.703 81.0419C149.703 81.0419 150.047 70.9896 139.903 72.7749Z" stroke="#F8F9FD" stroke-width="0.318541" stroke-miterlimit="10"/>
<path d="M123.985 68.5468C123.985 68.5468 129.27 56.6578 146.081 58.5696C146.081 58.5696 147.025 58.4393 146.543 57.7362C146.543 57.7362 131.229 52.7317 122.911 67.7332C122.911 67.7332 122.69 68.9181 123.985 68.5468Z" stroke="#F8F9FD" stroke-width="0.318541" stroke-miterlimit="10"/>
<path d="M128.563 75.2258C128.563 75.2258 132.422 62.7641 147.605 66.8246C147.605 66.8246 148.79 67.0458 148.66 66.1018C148.66 66.1018 134.622 59.1895 127.489 74.4122C127.489 74.4122 127.267 75.5971 128.563 75.2258Z" stroke="#F8F9FD" stroke-width="0.318541" stroke-miterlimit="10"/>
<path d="M107.963 61.7546C107.963 61.7546 124.888 35.7909 152.691 44.0157C152.691 44.0157 153.659 43.9205 153.347 42.636C153.347 42.636 127.038 31.9923 106.948 60.952C106.924 60.9169 106.644 62.0908 107.963 61.7546Z" stroke="#F8F9FD" stroke-width="0.315483" stroke-miterlimit="10"/>
<path d="M116.614 62.5419C116.614 62.5419 129.581 44.9747 146.792 49.5056C146.792 49.5056 147.831 50.3433 146.57 50.6905C146.57 50.6905 132.105 46.3962 118.064 63.1498C118.029 63.1739 116.599 64.1025 116.614 62.5419Z" stroke="#F8F9FD" stroke-width="0.315483" stroke-miterlimit="10"/>
<path d="M136.773 93.1596C136.773 93.1596 149.957 98.0733 156.648 85.2205C156.648 85.2205 158.406 84.0158 157.964 86.3857C157.964 86.3857 150.218 99.9613 136.793 94.6961C136.793 94.6961 135.126 93.7719 136.773 93.1596Z" stroke="#F8F9FD" stroke-width="0.318541" stroke-miterlimit="10"/>
<path d="M217.422 106.497C217.422 106.497 234.395 80.6039 262.187 88.8879C262.187 88.8879 263.155 88.7927 262.843 87.5083C262.843 87.5083 236.545 76.8053 216.383 105.66C216.383 105.66 216.102 106.833 217.422 106.497Z" stroke="#F8F9FD" stroke-width="0.315483" stroke-miterlimit="10"/>
<path d="M233.917 -14.5494L229.798 -3.97574L239.779 0.0333605L245.435 -10.5601L233.917 -14.5494Z" stroke="#F8F9FD" stroke-width="0.318541" stroke-miterlimit="10"/>
<path d="M215.456 2.23726L225.753 -15.1538C225.753 -15.1538 226.808 -15.8766 226.586 -14.6917L218.398 1.25376L234.285 4.83235C234.285 4.83235 235.007 5.88695 234.063 6.0173L215.456 2.23726Z" stroke="#F8F9FD" stroke-width="0.318541" stroke-miterlimit="10"/>
<path d="M84.1514 50.3817L80.162 61.8994L91.6797 65.8888L96.7237 53.6483L84.1514 50.3817Z" stroke="#F8F9FD" stroke-width="0.318541" stroke-miterlimit="10"/>
<path d="M66.6338 67.038L76.9311 49.647C76.9311 49.647 77.9857 48.9241 77.7645 50.1091L69.5765 66.0545L85.4627 69.6331C85.4627 69.6331 86.1855 70.6877 85.2415 70.8181L66.6338 67.038Z" stroke="#F8F9FD" stroke-width="0.318541" stroke-miterlimit="10"/>
<path d="M90.2184 44.1567L110.011 48.1579L100.286 64.1231C99.5834 64.605 98.8605 63.5504 98.8605 63.5504L107.771 48.6596L89.6456 45.5826C89.6456 45.5826 88.9228 44.528 90.2184 44.1567Z" stroke="#F8F9FD" stroke-width="0.318541" stroke-miterlimit="10"/>
<path d="M198.957 88.9795L218.75 92.9807L209.025 108.946C208.322 109.428 207.599 108.373 207.599 108.373L216.51 93.4823L198.384 90.4054C198.384 90.4054 197.661 89.3507 198.957 88.9795Z" stroke="#F8F9FD" stroke-width="0.318541" stroke-miterlimit="10"/>
<path d="M159.265 17.4994L156.461 29.2383L166.442 33.2474L170.673 22.0812L159.265 17.4994Z" stroke="#F8F9FD" stroke-width="0.318541" stroke-miterlimit="10"/>
<path d="M140.342 35.1196L150.639 17.7285C150.639 17.7285 151.694 17.0057 151.472 18.1906L143.284 34.1361L159.171 37.7147C159.171 37.7147 159.893 38.7693 158.949 38.8996L140.342 35.1196Z" stroke="#F8F9FD" stroke-width="0.318541" stroke-miterlimit="10"/>
<path d="M165.779 12.0018L184.174 15.7727L175.18 30.6173C174.512 31.0751 173.837 30.0908 173.837 30.0908L182.099 16.2131L165.229 13.3092C165.253 13.3443 164.578 12.36 165.779 12.0018Z" stroke="#F8F9FD" stroke-width="0.296498" stroke-miterlimit="10"/>
<path d="M71.4289 90.6179C72.6991 91.039 72.0016 89.1921 72.0016 89.1921C57.5018 83.1132 47.2045 100.504 47.2045 100.504C47.2045 100.504 47.5758 101.8 48.5198 101.67C48.5198 101.67 57.5413 86.1862 71.4289 90.6179Z" stroke="#F8F9FD" stroke-width="0.318541" stroke-miterlimit="10"/>
<path d="M42.9781 93.5845C42.9781 93.5845 50.3525 78.7134 71.4209 80.8069C71.4209 80.8069 72.4952 81.6206 71.6815 82.6949C71.6815 82.6949 53.3148 79.2664 44.7555 93.9163C44.7555 93.9163 43.9418 94.9907 42.9781 93.5845Z" stroke="#F8F9FD" stroke-width="0.318541" stroke-miterlimit="10"/>
<path d="M77.6183 75.5259C77.6183 75.5259 78.9138 75.1546 77.8395 74.3409C77.8395 74.3409 48.9713 66.8982 34.6764 92.4026C34.6764 92.4026 34.1108 93.4619 35.4715 93.5627C35.4715 93.5627 45.755 70.4976 77.6183 75.5259Z" stroke="#F8F9FD" stroke-width="0.318541" stroke-miterlimit="10"/>
<path d="M26.4838 70.2732C26.4838 70.2732 24.5958 70.5339 25.9111 71.6991C25.9111 71.6991 51.3361 81.6566 68.9366 53.0599C68.9366 53.0599 69.0472 52.4674 67.8623 52.2462C67.8623 52.2462 52.9437 77.9715 26.4838 70.2732Z" stroke="#F8F9FD" stroke-width="0.318541" stroke-miterlimit="10"/>
<path d="M31.9583 63.9376C31.9583 63.9376 46.0473 65.6479 57.7191 54.0315C57.7191 54.0315 59.0147 53.6602 58.7935 54.8451C58.7935 54.8451 46.9005 67.6465 31.978 65.4741C31.978 65.4741 31.1446 65.0119 31.9583 63.9376Z" stroke="#F8F9FD" stroke-width="0.318541" stroke-miterlimit="10"/>
<path d="M31.2869 57.6811C31.2869 57.6811 30.5641 56.6265 31.8596 56.2552C31.8596 56.2552 43.9501 58.8186 53.2717 48.2963C53.2717 48.2963 54.3263 47.5735 54.6976 48.8691C54.6976 48.8691 48.3383 59.9444 31.2869 57.6811Z" stroke="#F8F9FD" stroke-width="0.318541" stroke-miterlimit="10"/>
<path d="M29.6319 48.4816C29.6319 48.4816 43.0376 52.2103 48.2119 40.9138C48.2119 40.9138 49.859 40.3016 50.2303 41.5971C50.2303 41.5971 45.5378 53.5967 30.1335 50.7212C30.1335 50.7212 28.7076 50.1485 29.6319 48.4816Z" stroke="#F8F9FD" stroke-width="0.318541" stroke-miterlimit="10"/>
<path d="M33.4144 28.2192C33.4144 28.2192 22.8683 35.4474 34.0739 42.7506C34.0739 42.7506 41.7761 44.1884 43.2139 36.4862C43.2139 36.4862 43.5575 26.4339 33.4144 28.2192Z" stroke="#F8F9FD" stroke-width="0.318541" stroke-miterlimit="10"/>
<path d="M42.5519 23.6098C42.5519 23.6098 42.5922 23.0655 34.9153 20.8354L36.673 19.6308C36.673 19.6308 41.2168 20.9081 42.7731 22.4249C42.7731 22.4249 43.4959 23.4795 42.5519 23.6098Z" stroke="#F8F9FD" stroke-width="0.318541" stroke-miterlimit="10"/>
<path d="M21.7678 29.8466L23.7716 28.4733C23.7716 28.4733 24.5995 31.2642 24.2479 31.5052C24.2479 31.5052 23.4342 32.5795 22.6008 32.1174C22.5657 32.1415 22.6214 30.0366 21.7678 29.8466Z" stroke="#F8F9FD" stroke-width="0.318541" stroke-miterlimit="10"/>
<path d="M35.5999 80.5578L25.3379 79.5312L30.9999 87.7923L35.5999 80.5578Z" stroke="#F8F9FD" stroke-width="0.318541" stroke-miterlimit="10"/>
</svg>
