<svg width="48" height="48" viewBox="0 0 48 48" fill="none" xmlns="http://www.w3.org/2000/svg">
<rect width="48" height="48" rx="4" fill="#DEEFF9"/>
<path d="M27.4148 19.3496C27.1254 19.3498 26.845 19.4503 26.6213 19.634C26.3977 19.8178 26.2447 20.0733 26.1883 20.3573C26.132 20.6412 26.1759 20.9358 26.3124 21.191C26.449 21.4462 26.6698 21.6462 26.9373 21.7568C27.2048 21.8674 27.5023 21.8819 27.7792 21.7978C28.0562 21.7136 28.2954 21.5361 28.4561 21.2953C28.6168 21.0546 28.689 20.7656 28.6605 20.4776C28.6321 20.1895 28.5046 19.9203 28.2998 19.7157C28.1837 19.5994 28.0458 19.5071 27.8939 19.4443C27.742 19.3815 27.5792 19.3493 27.4148 19.3496Z" fill="#58B4EB"/>
<path d="M34.38 14.3465C34.3798 14.3451 34.3798 14.3436 34.38 14.3422C34.3404 14.1685 34.253 14.0093 34.1276 13.8825C34.0023 13.7558 33.8441 13.6666 33.6708 13.6251C32.2739 13.2843 30.0764 13.6476 27.6413 14.6226C25.1869 15.6069 22.8872 17.06 21.3328 18.6172C20.8346 19.1128 20.3718 19.6427 19.9477 20.203C18.9009 20.1561 17.9789 20.3052 17.2022 20.6441C14.4956 21.8352 13.7227 24.8835 13.5169 26.135C13.4871 26.3129 13.4988 26.4952 13.551 26.6678C13.6031 26.8404 13.6945 26.9986 13.8178 27.1301C13.9411 27.2616 14.0931 27.363 14.262 27.4261C14.4309 27.4893 14.612 27.5127 14.7914 27.4944H14.7975L17.8125 27.1654C17.8163 27.2038 17.8205 27.239 17.8238 27.2713C17.8625 27.6387 18.0263 27.9816 18.2878 28.2425L19.7592 29.7149C20.0198 29.9767 20.3626 30.1408 20.73 30.1794L20.8308 30.1902L20.5027 33.2015V33.2075C20.4859 33.3697 20.5032 33.5336 20.5533 33.6887C20.6035 33.8439 20.6855 33.9868 20.7941 34.1085C20.9027 34.2301 21.0354 34.3277 21.1839 34.3951C21.3323 34.4625 21.4932 34.4982 21.6563 34.4999C21.7214 34.4999 21.7865 34.4946 21.8508 34.484C23.1094 34.2815 26.1563 33.5179 27.3441 30.7968C27.6802 30.0252 27.8288 29.1069 27.787 28.0621C28.3499 27.6389 28.8817 27.176 29.3784 26.6769C30.9455 25.1179 32.4033 22.8369 33.3774 20.4182C34.3472 18.0107 34.7124 15.7968 34.38 14.3465ZM29.3616 22.544C28.9764 22.9295 28.4856 23.1922 27.9511 23.2987C27.4166 23.4052 26.8626 23.3508 26.359 23.1424C25.8555 22.934 25.4251 22.5809 25.1222 22.1278C24.8194 21.6747 24.6577 21.142 24.6577 20.597C24.6577 20.052 24.8194 19.5193 25.1222 19.0662C25.4251 18.6131 25.8555 18.26 26.359 18.0516C26.8626 17.8432 27.4166 17.7888 27.9511 17.8953C28.4856 18.0018 28.9764 18.2645 29.3616 18.65C29.6197 18.9043 29.8247 19.2074 29.9647 19.5417C30.1046 19.8759 30.1767 20.2346 30.1767 20.597C30.1767 20.9594 30.1046 21.3181 29.9647 21.6523C29.8247 21.9866 29.6197 22.2897 29.3616 22.544Z" fill="#58B4EB"/>
<path d="M19.5905 30.1143C19.4091 30.0918 19.2257 30.1363 19.0748 30.2395C18.7753 30.4443 18.4744 30.6468 18.1706 30.8442C17.5561 31.2435 16.8211 30.5423 17.1863 29.9067L17.7558 28.9223C17.8372 28.8032 17.8825 28.6631 17.8864 28.5189C17.8902 28.3746 17.8523 28.2324 17.7773 28.1091C17.7023 27.9859 17.5933 27.8869 17.4635 27.824C17.3336 27.7611 17.1884 27.737 17.0452 27.7546C16.413 27.8346 15.8255 28.1225 15.375 28.5731C15.2034 28.7451 14.6817 29.2673 14.4009 31.2571C14.321 31.8287 14.2706 32.404 14.25 32.9807C14.2474 33.0808 14.2649 33.1804 14.3015 33.2736C14.338 33.3669 14.3929 33.4518 14.4628 33.5235C14.5327 33.5952 14.6162 33.6522 14.7085 33.6911C14.8007 33.73 14.8999 33.75 15 33.7499H15.0188C15.5959 33.7295 16.1717 33.6794 16.7438 33.5999C18.7345 33.3187 19.2567 32.7965 19.4283 32.6249C19.8809 32.1743 20.1682 31.5839 20.2434 30.9496C20.2675 30.7523 20.2123 30.5534 20.0899 30.3968C19.9674 30.2402 19.7878 30.1386 19.5905 30.1143Z" fill="#58B4EB"/>
</svg>
