<svg width="12" height="12" viewBox="0 0 12 12" fill="none" xmlns="http://www.w3.org/2000/svg">
<path d="M6 0.53125C2.98453 0.53125 0.53125 2.98453 0.53125 6C0.53125 9.01547 2.98453 11.4688 6 11.4688C9.01547 11.4688 11.4688 9.01547 11.4688 6C11.4688 2.98453 9.01547 0.53125 6 0.53125ZM6 2.77344C6.14061 2.77344 6.27806 2.81513 6.39498 2.89325C6.51189 2.97137 6.60301 3.0824 6.65682 3.21231C6.71063 3.34222 6.72471 3.48516 6.69728 3.62307C6.66985 3.76098 6.60213 3.88766 6.50271 3.98708C6.40328 4.08651 6.27661 4.15422 6.1387 4.18165C6.00079 4.20908 5.85784 4.195 5.72794 4.1412C5.59803 4.08739 5.487 3.99626 5.40888 3.87935C5.33076 3.76244 5.28906 3.62499 5.28906 3.48438C5.28906 3.29582 5.36396 3.11499 5.49729 2.98167C5.63062 2.84834 5.81145 2.77344 6 2.77344ZM7.3125 8.95312H4.90625C4.79022 8.95312 4.67894 8.90703 4.59689 8.82498C4.51484 8.74294 4.46875 8.63166 4.46875 8.51562C4.46875 8.39959 4.51484 8.28831 4.59689 8.20627C4.67894 8.12422 4.79022 8.07812 4.90625 8.07812H5.67188V5.67188H5.23438C5.11834 5.67188 5.00706 5.62578 4.92502 5.54373C4.84297 5.46169 4.79688 5.35041 4.79688 5.23438C4.79688 5.11834 4.84297 5.00706 4.92502 4.92502C5.00706 4.84297 5.11834 4.79688 5.23438 4.79688H6.10938C6.22541 4.79688 6.33669 4.84297 6.41873 4.92502C6.50078 5.00706 6.54688 5.11834 6.54688 5.23438V8.07812H7.3125C7.42853 8.07812 7.53981 8.12422 7.62186 8.20627C7.70391 8.28831 7.75 8.39959 7.75 8.51562C7.75 8.63166 7.70391 8.74294 7.62186 8.82498C7.53981 8.90703 7.42853 8.95312 7.3125 8.95312Z" fill="#FFC148"/>
</svg>
