<svg width="21" height="22" viewBox="0 0 21 22" fill="none" xmlns="http://www.w3.org/2000/svg">
<path d="M14.328 3.34361C15.3424 3.34664 16.3144 3.75096 17.0317 4.46827C17.749 5.18558 18.1534 6.15759 18.1564 7.17201V14.828C18.1534 15.8424 17.749 16.8144 17.0317 17.5317C16.3144 18.249 15.3424 18.6534 14.328 18.6564H6.67201C5.65759 18.6534 4.68558 18.249 3.96827 17.5317C3.25096 16.8144 2.84664 15.8424 2.84361 14.828V7.17201C2.84664 6.15759 3.25096 5.18558 3.96827 4.46827C4.68558 3.75096 5.65759 3.34664 6.67201 3.34361H14.328ZM14.328 1.8125H6.67201C3.72422 1.8125 1.3125 4.22422 1.3125 7.17201V14.828C1.3125 17.7758 3.72422 20.1875 6.67201 20.1875H14.328C17.2758 20.1875 19.6875 17.7758 19.6875 14.828V7.17201C19.6875 4.22422 17.2758 1.8125 14.328 1.8125Z" fill="#F8F9FD"/>
<path d="M15.4764 7.17188C15.2493 7.17188 15.0273 7.10452 14.8384 6.97833C14.6495 6.85214 14.5023 6.67278 14.4154 6.46293C14.3285 6.25308 14.3057 6.02216 14.3501 5.79939C14.3944 5.57661 14.5037 5.37198 14.6644 5.21137C14.825 5.05076 15.0296 4.94138 15.2524 4.89707C15.4752 4.85275 15.7061 4.8755 15.9159 4.96242C16.1258 5.04934 16.3051 5.19654 16.4313 5.3854C16.5575 5.57426 16.6249 5.7963 16.6249 6.02344C16.6252 6.17434 16.5957 6.32383 16.5381 6.46331C16.4805 6.60279 16.3959 6.72952 16.2892 6.83623C16.1825 6.94294 16.0558 7.02752 15.9163 7.08512C15.7768 7.14272 15.6273 7.1722 15.4764 7.17188ZM10.5 7.93723C11.1057 7.93723 11.6979 8.11685 12.2015 8.45337C12.7052 8.7899 13.0977 9.26822 13.3295 9.82784C13.5613 10.3875 13.622 11.0033 13.5038 11.5974C13.3856 12.1914 13.0939 12.7372 12.6656 13.1655C12.2373 13.5938 11.6916 13.8855 11.0975 14.0037C10.5034 14.1218 9.88761 14.0612 9.32798 13.8294C8.76836 13.5976 8.29004 13.205 7.95351 12.7014C7.61699 12.1977 7.43737 11.6056 7.43737 10.9999C7.43823 10.1879 7.76118 9.40938 8.33535 8.83521C8.90952 8.26104 9.68801 7.9381 10.5 7.93723ZM10.5 6.40611C9.59144 6.40611 8.70329 6.67553 7.94785 7.1803C7.19241 7.68507 6.60362 8.40251 6.25593 9.24191C5.90824 10.0813 5.81727 11.005 5.99452 11.8961C6.17177 12.7872 6.60928 13.6057 7.25173 14.2481C7.89418 14.8906 8.71271 15.3281 9.60381 15.5053C10.4949 15.6826 11.4186 15.5916 12.258 15.2439C13.0974 14.8962 13.8148 14.3075 14.3196 13.552C14.8243 12.7966 15.0938 11.9084 15.0938 10.9999C15.0938 9.78153 14.6098 8.61309 13.7483 7.75159C12.8868 6.8901 11.7183 6.40611 10.5 6.40611Z" fill="#F8F9FD"/>
</svg>
