<svg width="19" height="20" viewBox="0 0 19 20" fill="none" xmlns="http://www.w3.org/2000/svg">
<path d="M17.2179 0.8125H1.88258C1.04463 0.8125 0.3125 1.41543 0.3125 2.24354V17.6129C0.3125 18.4455 1.04463 19.1875 1.88258 19.1875H17.2134C18.0559 19.1875 18.6875 18.4406 18.6875 17.6129V2.24354C18.6924 1.41543 18.0559 0.8125 17.2179 0.8125ZM6.00834 16.129H3.37596V7.9443H6.00834V16.129ZM4.7832 6.69988H4.76434C3.92188 6.69988 3.37637 6.07275 3.37637 5.28772C3.37637 4.48832 3.93623 3.87596 4.79756 3.87596C5.65889 3.87596 6.18594 4.48381 6.20481 5.28772C6.2044 6.07275 5.65889 6.69988 4.7832 6.69988ZM15.629 16.129H12.9966V11.6538C12.9966 10.5816 12.6135 9.84906 11.6611 9.84906C10.9335 9.84906 10.5028 10.3413 10.3113 10.8207C10.2395 10.993 10.2202 11.2276 10.2202 11.4671V16.129H7.58785V7.9443H10.2202V9.0833C10.6033 8.53779 11.2017 7.75275 12.5942 7.75275C14.3222 7.75275 15.6294 8.89176 15.6294 11.3474L15.629 16.129Z" fill="#F8F9FD"/>
</svg>
