<svg width="33" height="26" viewBox="0 0 33 26" fill="none" xmlns="http://www.w3.org/2000/svg">
<path d="M0.3125 21.6719C0.3125 22.7452 0.738866 23.7745 1.4978 24.5334C2.25674 25.2924 3.28608 25.7188 4.35938 25.7188H28.6406C29.7139 25.7188 30.7433 25.2924 31.5022 24.5334C32.2611 23.7745 32.6875 22.7452 32.6875 21.6719V10.543H0.3125V21.6719ZM5.08203 16.1797C5.08203 15.6047 5.31044 15.0533 5.71701 14.6467C6.12359 14.2401 6.67502 14.0117 7.25 14.0117H10.7188C11.2937 14.0117 11.8452 14.2401 12.2517 14.6467C12.6583 15.0533 12.8867 15.6047 12.8867 16.1797V17.625C12.8867 18.2 12.6583 18.7514 12.2517 19.158C11.8452 19.5646 11.2937 19.793 10.7188 19.793H7.25C6.67502 19.793 6.12359 19.5646 5.71701 19.158C5.31044 18.7514 5.08203 18.2 5.08203 17.625V16.1797ZM28.6406 0.28125H4.35938C3.28608 0.28125 2.25674 0.707616 1.4978 1.46655C0.738866 2.22549 0.3125 3.25483 0.3125 4.32812V6.20703H32.6875V4.32812C32.6875 3.25483 32.2611 2.22549 31.5022 1.46655C30.7433 0.707616 29.7139 0.28125 28.6406 0.28125Z" fill="#14957C"/>
</svg>
