<svg width="15" height="15" viewBox="0 0 15 15" fill="none" xmlns="http://www.w3.org/2000/svg">
<path d="M7.5 0.1875C3.46793 0.1875 0.1875 3.46793 0.1875 7.5C0.1875 11.5321 3.46793 14.8125 7.5 14.8125C11.5321 14.8125 14.8125 11.5321 14.8125 7.5C14.8125 3.46793 11.5321 0.1875 7.5 0.1875ZM11.3057 5.04926L6.58066 10.6743C6.52883 10.736 6.46434 10.7859 6.39155 10.8205C6.31877 10.8551 6.23939 10.8737 6.15879 10.875H6.1493C6.07045 10.875 5.9925 10.8584 5.92049 10.8263C5.84847 10.7942 5.78402 10.7473 5.73129 10.6887L3.70629 8.43867C3.65486 8.38413 3.61486 8.31985 3.58862 8.24962C3.56239 8.17939 3.55046 8.10463 3.55354 8.02973C3.55661 7.95482 3.57463 7.88129 3.60653 7.81345C3.63843 7.7456 3.68357 7.68482 3.73929 7.63468C3.79502 7.58453 3.8602 7.54602 3.93102 7.52143C4.00184 7.49683 4.07686 7.48664 4.15167 7.49146C4.22648 7.49627 4.29958 7.51599 4.36666 7.54945C4.43375 7.58292 4.49346 7.62945 4.5423 7.68633L6.13453 9.45539L10.4443 4.32574C10.541 4.21397 10.6778 4.14474 10.8251 4.133C10.9724 4.12126 11.1184 4.16796 11.2316 4.26301C11.3447 4.35806 11.4159 4.49382 11.4298 4.64095C11.4437 4.78807 11.3991 4.93474 11.3057 5.04926Z" fill="#404040"/>
</svg>
