<svg width="35" height="34" viewBox="0 0 35 34" fill="none" xmlns="http://www.w3.org/2000/svg">
<path d="M19.8125 17C23.6274 17 26.9979 13.4077 27.3281 8.99152C27.4922 6.77297 26.7963 4.704 25.3683 3.16691C23.9555 1.64861 21.9805 0.8125 19.8125 0.8125C17.6272 0.8125 15.6507 1.64355 14.248 3.15246C12.8295 4.67799 12.1379 6.75129 12.2969 8.99008C12.6213 13.407 15.9911 17 19.8125 17ZM34.7989 30.2795C34.189 26.8961 32.2848 24.0539 29.293 22.0593C26.6358 20.2881 23.269 19.3125 19.8125 19.3125C16.356 19.3125 12.9892 20.2881 10.332 22.0586C7.34018 24.0531 5.43598 26.8953 4.82606 30.2788C4.68658 31.0542 4.87592 31.821 5.34564 32.3825C5.5587 32.6383 5.82621 32.8434 6.12865 32.9827C6.43109 33.122 6.76081 33.1919 7.09375 33.1875H32.5312C32.8644 33.1922 33.1943 33.1225 33.497 32.9833C33.7997 32.8442 34.0675 32.6391 34.2808 32.3832C34.7491 31.8217 34.9384 31.0549 34.7989 30.2795ZM6.51562 19.3125V16.4219H9.40625C9.71291 16.4219 10.007 16.3001 10.2238 16.0832C10.4407 15.8664 10.5625 15.5723 10.5625 15.2656C10.5625 14.959 10.4407 14.6649 10.2238 14.448C10.007 14.2312 9.71291 14.1094 9.40625 14.1094H6.51562V11.2188C6.51562 10.9121 6.39381 10.618 6.17697 10.4012C5.96013 10.1843 5.66603 10.0625 5.35938 10.0625C5.05272 10.0625 4.75862 10.1843 4.54178 10.4012C4.32494 10.618 4.20312 10.9121 4.20312 11.2188V14.1094H1.3125C1.00584 14.1094 0.711747 14.2312 0.494908 14.448C0.278069 14.6649 0.15625 14.959 0.15625 15.2656C0.15625 15.5723 0.278069 15.8664 0.494908 16.0832C0.711747 16.3001 1.00584 16.4219 1.3125 16.4219H4.20312V19.3125C4.20312 19.6192 4.32494 19.9133 4.54178 20.1301C4.75862 20.3469 5.05272 20.4688 5.35938 20.4688C5.66603 20.4688 5.96013 20.3469 6.17697 20.1301C6.39381 19.9133 6.51562 19.6192 6.51562 19.3125Z" fill="#14957C"/>
</svg>
