<svg width="155" height="84" viewBox="0 0 155 84" fill="none" xmlns="http://www.w3.org/2000/svg">
<path d="M9.79739 56.8574C9.79739 56.8574 10.7556 55.994 10.6253 55.05C10.6253 55.05 7.51442 44.782 2.71459 42.905L1.02722 44.0615L9.79739 56.8574Z" stroke="#F8F9FD" stroke-width="0.318541" stroke-miterlimit="10"/>
<path d="M13.7488 62.6226C13.7488 62.6226 16.6093 60.7654 17.5335 59.0986C17.5335 59.0986 15.0365 43.2432 8.79616 38.7368L2.71459 42.905C2.71459 42.905 8.37785 45.7402 10.6253 55.05C10.6253 55.05 10.5727 56.481 9.79739 56.8574L13.7488 62.6226Z" stroke="#F8F9FD" stroke-width="0.318541" stroke-miterlimit="10"/>
<path d="M14.948 34.5203C14.948 34.5203 25.6347 50.1878 25.0895 62.9615C25.0895 62.9615 19.292 68.0718 17.7966 68.5284L13.7488 62.6226C13.7488 62.6226 17.3676 59.9873 17.5335 59.0986C17.5335 59.0986 14.8508 42.5954 8.79616 38.7368L14.948 34.5203Z" stroke="#F8F9FD" stroke-width="0.318541" stroke-miterlimit="10"/>
<path d="M47.0081 12.5466C47.0081 12.5466 47.3706 30.64 63.1738 46.159C63.1738 46.159 85.4983 44.8082 98.5565 30.6915C98.5565 30.6915 95.4085 6.49879 82.1055 -7.63375C82.1055 -7.63375 77.9231 -8.38383 74.6388 -6.39115L47.0081 12.5466Z" stroke="#F8F9FD" stroke-width="0.318541" stroke-miterlimit="10"/>
<path d="M53.5206 12.4748C53.5206 12.4748 53.7694 22.6377 65.5556 38.3265C65.5556 38.3265 72.7759 39.0612 90.5937 27.3658C90.5937 27.3658 89.3416 12.7238 79.7435 1.7353C79.7435 1.7353 65.6742 1.56147 53.5206 12.4748Z" stroke="#F8F9FD" stroke-width="0.318541" stroke-miterlimit="10"/>
<path d="M62.2971 14.7263C62.2971 14.7263 62.9883 22.5193 68.5299 30.6047C68.5299 30.6047 77.9503 27.7648 82.6308 24.0401C82.6308 24.0401 79.7514 11.5468 76.7693 9.45729C76.7693 9.45729 69.1066 11.0925 62.2971 14.7263Z" stroke="#F8F9FD" stroke-width="0.318541" stroke-miterlimit="10"/>
<path d="M95.6613 -1.42457C95.6613 -1.42457 99.5204 -13.8863 114.704 -9.82581C114.704 -9.82581 115.888 -9.60462 115.758 -10.5486C115.758 -10.5486 101.72 -17.4609 94.587 -2.23824C94.587 -2.23824 94.3658 -1.05329 95.6613 -1.42457Z" stroke="#F8F9FD" stroke-width="0.318541" stroke-miterlimit="10"/>
<path d="M105.212 -3.32048C105.212 -3.32048 95.3888 4.96229 108.222 10.1169C108.222 10.1169 117.46 11.5349 115.434 1.04016C115.434 1.04016 112.243 -8.13925 105.212 -3.32048Z" stroke="#F8F9FD" stroke-width="0.318541" stroke-miterlimit="10"/>
<path d="M102.858 15.8598C102.858 15.8598 116.042 20.7735 122.733 7.92073C122.733 7.92073 124.491 6.71603 124.049 9.08593C124.049 9.08593 116.303 22.6615 102.878 17.3963C102.878 17.3963 101.211 16.4721 102.858 15.8598Z" stroke="#F8F9FD" stroke-width="0.318541" stroke-miterlimit="10"/>
<path d="M104.031 24.3559C104.031 24.3559 121.173 24.4902 126.96 14.8408C126.96 14.8408 128.958 13.9877 128.275 16.006C128.275 16.006 121.434 26.3783 104.051 25.8924C104.051 25.8924 102.625 25.3197 104.031 24.3559Z" stroke="#F8F9FD" stroke-width="0.318541" stroke-miterlimit="10"/>
<path d="M104.13 32.0384C104.13 32.0384 119.052 34.2109 132.592 20.7973C132.592 20.7973 133.777 21.0185 133.315 21.8519C133.315 21.8519 119.313 36.0989 104.501 33.334C104.501 33.334 103.668 32.8718 104.13 32.0384Z" stroke="#F8F9FD" stroke-width="0.318541" stroke-miterlimit="10"/>
<path d="M97.8415 39.4481C97.8415 39.4481 126.059 45.9417 141.57 20.3271C141.57 20.3271 142.273 19.8452 142.404 20.7892C142.404 20.7892 128.559 47.3281 97.9719 40.3921C97.9719 40.3921 97.1384 39.93 97.8415 39.4481Z" stroke="#F8F9FD" stroke-width="0.318541" stroke-miterlimit="10"/>
<path d="M160.11 55.6702C160.11 55.6702 165.459 76.2883 172.999 83.5205C172.999 83.5205 189.861 80.2303 199.443 71.596C199.443 71.596 194.818 52.0325 187.037 44.4488C187.037 44.4488 171.21 45.4796 160.11 55.6702Z" stroke="#F8F9FD" stroke-width="0.318541" stroke-miterlimit="10"/>
<path d="M152.389 52.6963C152.389 52.6963 154.553 73.9464 168.95 90.4291C168.95 90.4291 189.908 93.115 207.516 74.3296C207.516 74.3296 203.444 51.8037 189.418 36.6166C189.418 36.6166 164.041 39.5434 152.389 52.6963Z" stroke="#F8F9FD" stroke-width="0.318541" stroke-miterlimit="10"/>
<path d="M131.699 107.694C131.699 107.694 131.573 88.6634 115.47 68.1835C115.47 68.1835 91.7192 68.9615 77.3852 84.986C77.3852 84.986 81.5167 112.121 94.7802 123.181C94.7802 123.181 110.647 125.223 131.699 107.694Z" stroke="#F8F9FD" stroke-width="0.318541" stroke-miterlimit="10"/>
<path d="M85.9207 86.8858C85.9207 86.8858 86.3394 101.066 97.2725 114.756C97.2725 114.756 112.748 113.966 123.495 104.016C123.495 104.016 120.928 88.2091 112.626 76.8493C112.626 76.8493 101.258 75.3405 85.9207 86.8858Z" stroke="#F8F9FD" stroke-width="0.318541" stroke-miterlimit="10"/>
<path d="M94.0139 91.1556C94.0139 91.1556 97.1145 102.464 100.357 106.441C100.357 106.441 106.503 106.362 115.292 100.339C115.292 100.339 112.673 89.7337 108.356 84.9426C108.356 84.9426 107.854 82.703 94.0139 91.1556Z" stroke="#F8F9FD" stroke-width="0.318541" stroke-miterlimit="10"/>
<path d="M151.172 -32.7545C151.172 -32.7545 163.792 -16.6036 164.412 -5.14513C164.412 -5.14513 152.258 5.76822 138.319 6.5384C138.319 6.5384 125.4 -14.5735 127.691 -20.277C127.691 -20.277 135.255 -29.5947 151.172 -32.7545Z" stroke="#F8F9FD" stroke-width="0.318541" stroke-miterlimit="10"/>
<path d="M155.573 -39.9037C155.573 -39.9037 175.882 -14.0401 172.486 -2.41182C172.486 -2.41182 160.391 13.111 135.697 14.0194C135.697 14.0194 117.093 -7.84694 119.487 -23.9543C119.487 -23.9543 136.282 -41.6653 155.573 -39.9037Z" stroke="#F8F9FD" stroke-width="0.318541" stroke-miterlimit="10"/>
<path d="M148.68 -24.3297C148.68 -24.3297 156.982 -12.9699 156.098 -8.23014C156.098 -8.23014 148.143 -1.74454 141.515 -2.36863C141.515 -2.36863 132.952 -15.6164 135.764 -17.5439C135.764 -17.5439 139.26 -21.4898 148.68 -24.3297Z" stroke="#F8F9FD" stroke-width="0.318541" stroke-miterlimit="10"/>
<path d="M139.903 72.7751C139.903 72.7751 129.357 80.0033 140.563 87.3066C140.563 87.3066 148.265 88.7443 149.703 81.0421C149.703 81.0421 150.047 70.9898 139.903 72.7751Z" stroke="#F8F9FD" stroke-width="0.318541" stroke-miterlimit="10"/>
<path d="M123.985 68.5468C123.985 68.5468 129.27 56.6578 146.081 58.5696C146.081 58.5696 147.025 58.4393 146.543 57.7362C146.543 57.7362 131.229 52.7317 122.911 67.7332C122.911 67.7332 122.69 68.9181 123.985 68.5468Z" stroke="#F8F9FD" stroke-width="0.318541" stroke-miterlimit="10"/>
<path d="M128.563 75.2258C128.563 75.2258 132.422 62.7641 147.605 66.8246C147.605 66.8246 148.79 67.0458 148.66 66.1018C148.66 66.1018 134.622 59.1895 127.489 74.4122C127.489 74.4122 127.267 75.5971 128.563 75.2258Z" stroke="#F8F9FD" stroke-width="0.318541" stroke-miterlimit="10"/>
<path d="M107.963 61.7546C107.963 61.7546 124.888 35.7909 152.691 44.0157C152.691 44.0157 153.659 43.9205 153.347 42.636C153.347 42.636 127.038 31.9923 106.948 60.952C106.924 60.9169 106.644 62.0908 107.963 61.7546Z" stroke="#F8F9FD" stroke-width="0.315483" stroke-miterlimit="10"/>
<path d="M116.614 62.5416C116.614 62.5416 129.581 44.9744 146.792 49.5053C146.792 49.5053 147.831 50.3431 146.57 50.6903C146.57 50.6903 132.105 46.396 118.064 63.1495C118.029 63.1736 116.599 64.1022 116.614 62.5416Z" stroke="#F8F9FD" stroke-width="0.315483" stroke-miterlimit="10"/>
<path d="M136.773 93.1594C136.773 93.1594 149.957 98.073 156.648 85.2203C156.648 85.2203 158.406 84.0156 157.964 86.3855C157.964 86.3855 150.218 99.961 136.793 94.6959C136.793 94.6959 135.126 93.7716 136.773 93.1594Z" stroke="#F8F9FD" stroke-width="0.318541" stroke-miterlimit="10"/>
<path d="M84.1515 50.3815L80.1621 61.8992L91.6798 65.8886L96.7238 53.648L84.1515 50.3815Z" stroke="#F8F9FD" stroke-width="0.318541" stroke-miterlimit="10"/>
<path d="M66.6339 67.0378L76.9312 49.6467C76.9312 49.6467 77.9858 48.9239 77.7646 50.1088L69.5765 66.0543L85.4627 69.6329C85.4627 69.6329 86.1856 70.6875 85.2415 70.8178L66.6339 67.0378Z" stroke="#F8F9FD" stroke-width="0.318541" stroke-miterlimit="10"/>
<path d="M90.2184 44.1565L110.011 48.1577L100.286 64.1229C99.5834 64.6048 98.8606 63.5502 98.8606 63.5502L107.771 48.6593L89.6457 45.5824C89.6457 45.5824 88.9229 44.5277 90.2184 44.1565Z" stroke="#F8F9FD" stroke-width="0.318541" stroke-miterlimit="10"/>
<path d="M159.265 17.4991L156.461 29.238L166.442 33.2471L170.673 22.081L159.265 17.4991Z" stroke="#F8F9FD" stroke-width="0.318541" stroke-miterlimit="10"/>
<path d="M140.342 35.1193L150.639 17.7283C150.639 17.7283 151.694 17.0054 151.472 18.1904L143.284 34.1358L159.171 37.7144C159.171 37.7144 159.893 38.769 158.949 38.8994L140.342 35.1193Z" stroke="#F8F9FD" stroke-width="0.318541" stroke-miterlimit="10"/>
<path d="M71.4289 90.6184C72.6991 91.0395 72.0016 89.1925 72.0016 89.1925C57.5018 83.1137 47.2045 100.505 47.2045 100.505C47.2045 100.505 47.5758 101.8 48.5198 101.67C48.5198 101.67 57.5413 86.1867 71.4289 90.6184Z" stroke="#F8F9FD" stroke-width="0.318541" stroke-miterlimit="10"/>
<path d="M42.9782 93.5845C42.9782 93.5845 50.3526 78.7134 71.421 80.8069C71.421 80.8069 72.4953 81.6206 71.6817 82.6949C71.6817 82.6949 53.315 79.2664 44.7556 93.9163C44.7556 93.9163 43.942 94.9907 42.9782 93.5845Z" stroke="#F8F9FD" stroke-width="0.318541" stroke-miterlimit="10"/>
<path d="M77.6183 75.5261C77.6183 75.5261 78.9139 75.1548 77.8395 74.3412C77.8395 74.3412 48.9714 66.8984 34.6765 92.4028C34.6765 92.4028 34.1109 93.4622 35.4716 93.5629C35.4716 93.5629 45.7551 70.4979 77.6183 75.5261Z" stroke="#F8F9FD" stroke-width="0.318541" stroke-miterlimit="10"/>
<path d="M26.4839 70.2727C26.4839 70.2727 24.5959 70.5334 25.9112 71.6986C25.9112 71.6986 51.3362 81.6562 68.9368 53.0594C68.9368 53.0594 69.0474 52.467 67.8624 52.2458C67.8624 52.2458 52.9438 77.971 26.4839 70.2727Z" stroke="#F8F9FD" stroke-width="0.318541" stroke-miterlimit="10"/>
<path d="M31.9584 63.9373C31.9584 63.9373 46.0475 65.6476 57.7192 54.0312C57.7192 54.0312 59.0148 53.6599 58.7936 54.8449C58.7936 54.8449 46.9006 67.6463 31.9782 65.4738C31.9782 65.4738 31.1447 65.0117 31.9584 63.9373Z" stroke="#F8F9FD" stroke-width="0.318541" stroke-miterlimit="10"/>
<path d="M31.2869 57.6806C31.2869 57.6806 30.5641 56.626 31.8596 56.2547C31.8596 56.2547 43.9501 58.8182 53.2717 48.2958C53.2717 48.2958 54.3263 47.573 54.6976 48.8686C54.6976 48.8686 48.3383 59.9439 31.2869 57.6806Z" stroke="#F8F9FD" stroke-width="0.318541" stroke-miterlimit="10"/>
<path d="M29.632 48.4814C29.632 48.4814 43.0377 52.2101 48.212 40.9136C48.212 40.9136 49.8591 40.3013 50.2304 41.5969C50.2304 41.5969 45.538 53.5965 30.1336 50.7209C30.1336 50.7209 28.7077 50.1482 29.632 48.4814Z" stroke="#F8F9FD" stroke-width="0.318541" stroke-miterlimit="10"/>
<path d="M33.4144 28.219C33.4144 28.219 22.8684 35.4471 34.074 42.7504C34.074 42.7504 41.7762 44.1882 43.2139 36.486C43.2139 36.486 43.5576 26.4337 33.4144 28.219Z" stroke="#F8F9FD" stroke-width="0.318541" stroke-miterlimit="10"/>
<path d="M42.5519 23.6096C42.5519 23.6096 42.5922 23.0653 34.9153 20.8352L36.673 19.6305C36.673 19.6305 41.2169 20.9079 42.7731 22.4246C42.7731 22.4246 43.496 23.4792 42.5519 23.6096Z" stroke="#F8F9FD" stroke-width="0.318541" stroke-miterlimit="10"/>
<path d="M21.7679 29.8462L23.7716 28.4728C23.7716 28.4728 24.5995 31.2638 24.248 31.5047C24.248 31.5047 23.4343 32.579 22.6009 32.1169C22.5657 32.141 22.6214 30.0361 21.7679 29.8462Z" stroke="#F8F9FD" stroke-width="0.318541" stroke-miterlimit="10"/>
<path d="M35.6 80.5581L25.338 79.5315L31 87.7926L35.6 80.5581Z" stroke="#F8F9FD" stroke-width="0.318541" stroke-miterlimit="10"/>
</svg>
