<svg width="24" height="22" viewBox="0 0 24 22" fill="none" xmlns="http://www.w3.org/2000/svg">
<path fill-rule="evenodd" clip-rule="evenodd" d="M18.7836 5.13645V3.56216C18.784 3.42075 18.8412 3.28525 18.9428 3.18526C19.0444 3.08527 19.182 3.02892 19.3256 3.0285H20.6809C20.8245 3.02892 20.9621 3.08527 21.0637 3.18526C21.1653 3.28525 21.2225 3.42075 21.2229 3.56216V7.05761L23.8792 9.13887C23.9452 9.19345 23.9876 9.27078 23.9977 9.35509C24.0078 9.4394 23.9848 9.52431 23.9334 9.59248C23.9054 9.63123 23.869 9.66333 23.8268 9.68642C23.7846 9.70951 23.7376 9.72299 23.6894 9.72589H21.494V20.399C21.4927 20.8233 21.321 21.2297 21.0163 21.5297C20.7116 21.8297 20.2986 21.9988 19.8677 22H4.14721C3.71628 21.9988 3.30337 21.8297 2.99866 21.5297C2.69395 21.2297 2.52221 20.8233 2.52095 20.399V9.72589H0.325495C0.282327 9.72757 0.239272 9.72044 0.19904 9.70494C0.158808 9.68944 0.122269 9.66591 0.0917201 9.63584C0.0611714 9.60577 0.0372745 9.5698 0.0215316 9.53019C0.00578867 9.49058 -0.00145945 9.4482 0.000243345 9.4057C-1.14478e-05 9.35759 0.0123233 9.31022 0.0360593 9.26816C0.0597954 9.2261 0.0941332 9.19076 0.135765 9.16556L11.6822 0.120073C11.7775 0.0424624 11.8973 0 12.021 0C12.1447 0 12.2645 0.0424624 12.3598 0.120073L18.7836 5.13645Z" fill="#FA9013"/>
<path fill-rule="evenodd" clip-rule="evenodd" d="M12.3327 2.33467L19.7593 8.01811C19.8213 8.07342 19.8599 8.14958 19.8677 8.23158V19.8386C19.8673 19.98 19.81 20.1155 19.7085 20.2155C19.6069 20.3155 19.4693 20.3719 19.3256 20.3723H4.68928C4.54564 20.3719 4.408 20.3155 4.30643 20.2155C4.20486 20.1155 4.14761 19.98 4.14719 19.8386V8.33831C4.14505 8.29655 4.15391 8.25495 4.17291 8.21755C4.1919 8.18015 4.22039 8.14822 4.25561 8.12484L11.6822 2.33467C11.7723 2.25725 11.8879 2.2146 12.0075 2.2146C12.127 2.2146 12.2426 2.25725 12.3327 2.33467Z" fill="#FFAE28"/>
<path fill-rule="evenodd" clip-rule="evenodd" d="M12.3327 4.81612L17.862 8.81855C17.8972 8.84192 17.9257 8.87385 17.9447 8.91125C17.9637 8.94865 17.9726 8.99025 17.9704 9.03201V17.9708C17.97 18.1122 17.9128 18.2477 17.8112 18.3477C17.7096 18.4476 17.572 18.504 17.4284 18.5044H6.58662C6.44298 18.504 6.30534 18.4476 6.20377 18.3477C6.1022 18.2477 6.04495 18.1122 6.04453 17.9708V9.29884C6.04239 9.25708 6.05125 9.21548 6.07025 9.17808C6.08924 9.14068 6.11773 9.10875 6.15295 9.08538L11.6822 4.81612C11.7778 4.75097 11.8913 4.71606 12.0075 4.71606C12.1237 4.71606 12.2372 4.75097 12.3327 4.81612Z" fill="#FFC148"/>
<path fill-rule="evenodd" clip-rule="evenodd" d="M12.3327 7.16439L15.9647 9.85935C15.9999 9.88272 16.0284 9.91466 16.0474 9.95206C16.0664 9.98946 16.0753 10.0311 16.0731 10.0728V16.1031C16.0727 16.2445 16.0154 16.38 15.9139 16.48C15.8123 16.58 15.6747 16.6364 15.531 16.6368H8.4839C8.34026 16.6364 8.20262 16.58 8.10105 16.48C7.99948 16.38 7.94223 16.2445 7.94181 16.1031V10.2596C7.93967 10.2178 7.94853 10.1762 7.96752 10.1388C7.98652 10.1014 8.01501 10.0695 8.05023 10.0461L11.6822 7.19107C11.7722 7.11603 11.885 7.07267 12.0028 7.06784C12.1206 7.063 12.2367 7.09698 12.3327 7.16439Z" fill="#FFD361"/>
<path fill-rule="evenodd" clip-rule="evenodd" d="M12.1972 9.48582L14.0945 11.2202C14.1437 11.2707 14.1726 11.3371 14.1758 11.407V14.5022C14.178 14.5378 14.1725 14.5734 14.1596 14.6068C14.1468 14.6401 14.1269 14.6704 14.1013 14.6956C14.0757 14.7209 14.0449 14.7404 14.011 14.7531C13.9771 14.7657 13.9409 14.7712 13.9048 14.769H10.1102C10.074 14.7712 10.0378 14.7657 10.0039 14.7531C9.97004 14.7404 9.93927 14.7209 9.91366 14.6956C9.88804 14.6704 9.86815 14.6401 9.8553 14.6068C9.84245 14.5734 9.83694 14.5378 9.83912 14.5022V11.407C9.83812 11.3719 9.84488 11.337 9.85892 11.3048C9.87296 11.2725 9.89395 11.2437 9.92043 11.2202L11.8177 9.48582C11.8731 9.44678 11.9394 9.42578 12.0075 9.42578C12.0755 9.42578 12.1419 9.44678 12.1972 9.48582Z" fill="#FFE780"/>
</svg>
