<svg width="25" height="32" viewBox="0 0 25 32" fill="none" xmlns="http://www.w3.org/2000/svg">
<path d="M24.8334 27.7013V11.113C24.8334 10.2959 24.5096 9.50962 23.9238 8.93921L16.4775 1.49296C15.9071 0.907124 15.1209 0.583374 14.3038 0.583374H3.25002C1.55419 0.583374 0.182104 1.97087 0.182104 3.66671L0.166687 28.3334C0.166687 30.0292 1.53877 31.4167 3.2346 31.4167H21.75C22.4438 31.4167 23.0604 31.1855 23.5846 30.8L16.755 23.9705C15.4292 24.8338 13.8413 25.3271 12.13 25.2346C8.47627 25.065 5.34669 22.213 4.85335 18.59C4.69054 17.3859 4.81395 16.1603 5.21357 15.0128C5.61319 13.8653 6.27776 12.8282 7.15333 11.9856C8.0289 11.1431 9.0908 10.5189 10.2528 10.1637C11.4149 9.8085 12.6443 9.7323 13.8413 9.94129C16.8475 10.45 19.345 12.7934 20.0079 15.7688C20.5167 18.0196 20.0234 20.1163 18.9288 21.7813L24.8334 27.7013ZM7.87502 17.5417C7.87502 20.1009 9.94085 22.1667 12.5 22.1667C15.0592 22.1667 17.125 20.1009 17.125 17.5417C17.125 14.9825 15.0592 12.9167 12.5 12.9167C9.94085 12.9167 7.87502 14.9825 7.87502 17.5417Z" fill="#14957C"/>
</svg>
