<svg width="21" height="21" viewBox="0 0 21 21" fill="none" xmlns="http://www.w3.org/2000/svg">
<path d="M10.5 2.1665C10.5 2.1665 11.4958 3.829 11.1 6.35817M6.33332 3.28317C6.33332 3.28317 8.02499 4.22484 8.94999 6.6165M3.28332 6.33317C3.28332 6.33317 5.22082 6.304 7.21249 7.91234M2.16666 10.4998C2.16666 10.4998 3.82916 9.504 6.35832 9.89984M3.28332 14.6665C3.28332 14.6665 4.22499 12.9748 6.61666 12.0498M6.33332 17.7165C6.33332 17.7165 6.30416 15.779 7.91249 13.7873M10.5 18.8332C10.5 18.8332 9.50416 17.1707 9.89999 14.6415M14.6667 17.7165C14.6667 17.7165 12.975 16.7748 12.05 14.3832M17.7167 14.6665C17.7167 14.6665 15.7792 14.6957 13.7875 13.0873M18.8333 10.4998C18.8333 10.4998 17.1708 11.4957 14.6417 11.0998M17.7167 6.33317C17.7167 6.33317 16.775 8.02484 14.3833 8.94984M14.6667 3.28317C14.6667 3.28317 14.6958 5.22067 13.0875 7.21234" stroke="#F8F9FD" stroke-width="0.416667" stroke-miterlimit="10" stroke-linecap="round" stroke-linejoin="round"/>
<path d="M10.5 7.5542L11.3667 9.30837L13.3 9.58753L11.9 10.9542L12.2333 12.8834L10.5 11.975L8.76668 12.8834L9.10001 10.9542L7.70001 9.58753L9.63335 9.30837L10.5 7.5542Z" fill="#F8F9FD" stroke="#F8F9FD" stroke-width="0.416667" stroke-miterlimit="10" stroke-linecap="round" stroke-linejoin="round"/>
</svg>
