<svg width="21" height="16" viewBox="0 0 21 16" fill="none" xmlns="http://www.w3.org/2000/svg">
<path d="M20.3438 1.99122C19.6052 2.3121 18.8239 2.52351 18.0243 2.61876C18.8646 2.12673 19.4965 1.34504 19.8015 0.420319C19.0071 0.884859 18.1394 1.2108 17.2356 1.38419C16.855 0.985322 16.3973 0.668015 15.8902 0.451551C15.3832 0.235087 14.8375 0.123988 14.2862 0.125007C12.0541 0.125007 10.2478 1.90508 10.2478 4.09942C10.2462 4.40464 10.2811 4.70896 10.3519 5.00587C8.75138 4.93083 7.1841 4.52253 5.75038 3.80708C4.31666 3.09164 3.04807 2.0848 2.02576 0.850983C1.66711 1.4556 1.47744 2.14545 1.47656 2.84844C1.47656 4.22657 2.19557 5.44473 3.28125 6.15841C2.63801 6.14314 2.00796 5.97289 1.44457 5.66212V5.71134C1.44457 7.63907 2.8391 9.24278 4.6848 9.60782C4.33772 9.70035 3.98006 9.74722 3.62086 9.74727C3.36598 9.74772 3.11168 9.72299 2.86166 9.67344C3.37477 11.2525 4.86814 12.401 6.63715 12.4338C5.19971 13.5416 3.4349 14.1404 1.62012 14.1359C1.29799 14.1355 0.976158 14.1163 0.65625 14.0785C2.50244 15.2574 4.64848 15.881 6.83895 15.875C14.2775 15.875 18.3414 9.817 18.3414 4.5629C18.3414 4.39063 18.3369 4.21837 18.3287 4.0502C19.1174 3.48913 19.7998 2.79189 20.3438 1.99122Z" fill="#F8F9FD"/>
</svg>
