<svg width="33" height="34" viewBox="0 0 33 34" fill="none" xmlns="http://www.w3.org/2000/svg">
<path d="M32.6875 33.9583H0.3125V32.4166H32.6875V33.9583ZM10.3333 9.29163V31.6458H1.85417V11.6041C1.85417 10.9908 2.0978 10.4026 2.53148 9.96894C2.96516 9.53526 3.55335 9.29163 4.16667 9.29163H10.3333ZM5.70833 27.0208H4.16667V28.5625H5.70833V27.0208ZM5.70833 22.3958H4.16667V23.9375H5.70833V22.3958ZM5.70833 17.7708H4.16667V19.3125H5.70833V17.7708ZM5.70833 13.1458H4.16667V14.6875H5.70833V13.1458ZM8.79167 27.0208H7.25V28.5625H8.79167V27.0208ZM8.79167 22.3958H7.25V23.9375H8.79167V22.3958ZM8.79167 17.7708H7.25V19.3125H8.79167V17.7708ZM8.79167 13.1458H7.25V14.6875H8.79167V13.1458ZM31.1458 11.6041V31.6458H22.6667V9.29163H28.8333C29.4466 9.29163 30.0348 9.53526 30.4685 9.96894C30.9022 10.4026 31.1458 10.9908 31.1458 11.6041ZM25.75 27.0208H24.2083V28.5625H25.75V27.0208ZM25.75 22.3958H24.2083V23.9375H25.75V22.3958ZM25.75 17.7708H24.2083V19.3125H25.75V17.7708ZM25.75 13.1458H24.2083V14.6875H25.75V13.1458ZM28.8333 27.0208H27.2917V28.5625H28.8333V27.0208ZM28.8333 22.3958H27.2917V23.9375H28.8333V22.3958ZM28.8333 17.7708H27.2917V19.3125H28.8333V17.7708ZM28.8333 13.1458H27.2917V14.6875H28.8333V13.1458ZM21.8958 2.35413V31.6458H11.1042V2.35413C11.1042 1.74081 11.3478 1.15262 11.7815 0.718942C12.2152 0.285264 12.8034 0.041626 13.4167 0.041626H19.5833C20.1966 0.041626 20.7848 0.285264 21.2185 0.718942C21.6522 1.15262 21.8958 1.74081 21.8958 2.35413ZM15.7292 27.0208H14.1875V28.5625H15.7292V27.0208ZM15.7292 22.3958H14.1875V23.9375H15.7292V22.3958ZM15.7292 17.7708H14.1875V19.3125H15.7292V17.7708ZM15.7292 13.1458H14.1875V14.6875H15.7292V13.1458ZM15.7292 8.52079H14.1875V10.0625H15.7292V8.52079ZM15.7292 3.89579H14.1875V5.43746H15.7292V3.89579ZM18.8125 27.0208H17.2708V28.5625H18.8125V27.0208ZM18.8125 22.3958H17.2708V23.9375H18.8125V22.3958ZM18.8125 17.7708H17.2708V19.3125H18.8125V17.7708ZM18.8125 13.1458H17.2708V14.6875H18.8125V13.1458ZM18.8125 8.52079H17.2708V10.0625H18.8125V8.52079ZM18.8125 3.89579H17.2708V5.43746H18.8125V3.89579Z" fill="#14957C"/>
</svg>
